# xmcd
#
# Track frame offsets:
#	150
#	17581
#	45568
#	72755
#	92722
#
# Disc length: 1442 seconds
# Revision: 0
# Processed by: cddbd v1.5.2PL0 Copyright (c) Steve Scherf et al.
# Submitted via: dBpowerAMP V12.0
#
DISCID=3405a005
DTITLE=Tygers of Pan Tang - The Wildcat Sessions - 30th Anniversary Special Edition
DYEAR=2010
DGENRE=Heavy Metal
TTITLE0=Euthanasia
TTITLE1=Slave To Freedom
TTITLE2=Suzie Smiled
TTITLE3=Don't Touch Me There
TTITLE4=Wild Catz
EXTD=
EXTT0=
EXTT1=
EXTT2=
EXTT3=
EXTT4=
PLAYORDER=
